{
  "asset": {
    "generator": "glTF-Transform v4.1.2",
    "version": "2.0"
  },
  "accessors": [
    {
      "type": "SCALAR",
      "componentType": 5123,
      "count": 36,
      "bufferView": 0,
      "byteOffset": 0
    },
    {
      "type": "VEC3",
      "componentType": 5126,
      "count": 24,
      "max": [
        0.3125,
        0.625,
        0.0625
      ],
      "min": [
        -0.1875,
        0,
        -0.1875
      ],
      "bufferView": 1,
      "byteOffset": 0
    },
    {
      "type": "VEC3",
      "componentType": 5126,
      "count": 24,
      "bufferView": 1,
      "byteOffset": 12
    },
    {
      "type": "VEC2",
      "componentType": 5126,
      "count": 24,
      "bufferView": 1,
      "byteOffset": 24
    },
    {
      "type": "VEC3",
      "componentType": 5126,
      "count": 24,
      "max": [
        0.328125,
        0.640625,
        0.078125
      ],
      "min": [
        -0.203125,
        -0.015625,
        -0.203125
      ],
      "bufferView": 2,
      "byteOffset": 0
    },
    {
      "type": "VEC2",
      "componentType": 5126,
      "count": 24,
      "bufferView": 2,
      "byteOffset": 12
    },
    {
      "type": "VEC3",
      "componentType": 5126,
      "count": 24,
      "max": [
        0.3125,
        2,
        0.1875
      ],
      "min": [
        -0.1875,
        1.5,
        -0.3125
      ],
      "bufferView": 3,
      "byteOffset": 0
    },
    {
      "type": "VEC2",
      "componentType": 5126,
      "count": 24,
      "bufferView": 3,
      "byteOffset": 12
    },
    {
      "type": "VEC3",
      "componentType": 5126,
      "count": 24,
      "max": [
        0.34375,
        2.03125,
        0.21875
      ],
      "min": [
        -0.21875,
        1.46875,
        -0.34375
      ],
      "bufferView": 4,
      "byteOffset": 0
    },
    {
      "type": "VEC2",
      "componentType": 5126,
      "count": 24,
      "bufferView": 4,
      "byteOffset": 12
    },
    {
      "type": "VEC3",
      "componentType": 5126,
      "count": 24,
      "max": [
        0.34375,
        2.03125,
        -0.28125
      ],
      "min": [
        -0.21875,
        1.46875,
        -0.34375
      ],
      "bufferView": 5,
      "byteOffset": 0
    },
    {
      "type": "VEC2",
      "componentType": 5126,
      "count": 24,
      "bufferView": 5,
      "byteOffset": 12
    },
    {
      "type": "VEC3",
      "componentType": 5126,
      "count": 24,
      "max": [
        0.34375,
        0.28125,
        -0.03125
      ],
      "min": [
        -0.21875,
        -0.28125,
        -0.09375
      ],
      "bufferView": 6,
      "byteOffset": 0
    },
    {
      "type": "VEC2",
      "componentType": 5126,
      "count": 24,
      "bufferView": 6,
      "byteOffset": 12
    },
    {
      "type": "VEC3",
      "componentType": 5126,
      "count": 24,
      "max": [
        0.5625,
        1.5,
        0.0625
      ],
      "min": [
        0.3125,
        0.875,
        -0.1875
      ],
      "bufferView": 7,
      "byteOffset": 0
    },
    {
      "type": "VEC2",
      "componentType": 5126,
      "count": 24,
      "bufferView": 7,
      "byteOffset": 12
    },
    {
      "type": "VEC3",
      "componentType": 5126,
      "count": 24,
      "max": [
        0.578125,
        1.515625,
        0.078125
      ],
      "min": [
        0.296875,
        0.859375,
        -0.203125
      ],
      "bufferView": 8,
      "byteOffset": 0
    },
    {
      "type": "VEC2",
      "componentType": 5126,
      "count": 24,
      "bufferView": 8,
      "byteOffset": 12
    },
    {
      "type": "VEC3",
      "componentType": 5126,
      "count": 24,
      "max": [
        -0.1875,
        1.5,
        0.0625
      ],
      "min": [
        -0.4375,
        1.1875,
        -0.1875
      ],
      "bufferView": 9,
      "byteOffset": 0
    },
    {
      "type": "VEC2",
      "componentType": 5126,
      "count": 24,
      "bufferView": 9,
      "byteOffset": 12
    },
    {
      "type": "VEC3",
      "componentType": 5126,
      "count": 24,
      "max": [
        -0.171875,
        1.515625,
        0.078125
      ],
      "min": [
        -0.453125,
        0.859375,
        -0.203125
      ],
      "bufferView": 10,
      "byteOffset": 0
    },
    {
      "type": "VEC2",
      "componentType": 5126,
      "count": 24,
      "bufferView": 10,
      "byteOffset": 12
    },
    {
      "type": "VEC3",
      "componentType": 5126,
      "count": 24,
      "max": [
        0.125,
        0.1875,
        0
      ],
      "min": [
        0,
        -0.0625,
        -0.125
      ],
      "bufferView": 11,
      "byteOffset": 0
    },
    {
      "type": "VEC2",
      "componentType": 5126,
      "count": 24,
      "bufferView": 11,
      "byteOffset": 12
    },
    {
      "type": "VEC3",
      "componentType": 5126,
      "count": 24,
      "max": [
        0.3062500059604645,
        0.625,
        0.0625
      ],
      "min": [
        0.05624999850988388,
        0,
        -0.1875
      ],
      "bufferView": 12,
      "byteOffset": 0
    },
    {
      "type": "VEC2",
      "componentType": 5126,
      "count": 24,
      "bufferView": 12,
      "byteOffset": 12
    },
    {
      "type": "VEC3",
      "componentType": 5126,
      "count": 24,
      "max": [
        0.3218750059604645,
        0.640625,
        0.078125
      ],
      "min": [
        0.04062499850988388,
        -0.015625,
        -0.203125
      ],
      "bufferView": 13,
      "byteOffset": 0
    },
    {
      "type": "VEC2",
      "componentType": 5126,
      "count": 24,
      "bufferView": 13,
      "byteOffset": 12
    },
    {
      "type": "VEC3",
      "componentType": 5126,
      "count": 24,
      "max": [
        0.06875000149011612,
        0.625,
        0.0625
      ],
      "min": [
        -0.18125000596046448,
        0,
        -0.1875
      ],
      "bufferView": 14,
      "byteOffset": 0
    },
    {
      "type": "VEC2",
      "componentType": 5126,
      "count": 24,
      "bufferView": 14,
      "byteOffset": 12
    },
    {
      "type": "VEC3",
      "componentType": 5126,
      "count": 24,
      "max": [
        0.08437500149011612,
        0.640625,
        0.078125
      ],
      "min": [
        -0.19687500596046448,
        -0.015625,
        -0.203125
      ],
      "bufferView": 15,
      "byteOffset": 0
    },
    {
      "type": "VEC2",
      "componentType": 5126,
      "count": 24,
      "bufferView": 15,
      "byteOffset": 12
    },
    {
      "type": "VEC3",
      "componentType": 5126,
      "count": 24,
      "max": [
        0.28125,
        0.11532191187143326,
        0.18885286152362823
      ],
      "min": [
        -0.28125,
        -0.07217808812856674,
        -0.37364715337753296
      ],
      "bufferView": 16,
      "byteOffset": 0
    },
    {
      "type": "VEC2",
      "componentType": 5126,
      "count": 24,
      "bufferView": 16,
      "byteOffset": 12
    },
    {
      "type": "VEC3",
      "componentType": 5126,
      "count": 24,
      "max": [
        0.21875,
        0.301435649394989,
        0.1496366411447525
      ],
      "min": [
        0.15625,
        0.11393564939498901,
        0.0871366485953331
      ],
      "bufferView": 17,
      "byteOffset": 0
    },
    {
      "type": "VEC2",
      "componentType": 5126,
      "count": 24,
      "bufferView": 17,
      "byteOffset": 12
    },
    {
      "type": "VEC3",
      "componentType": 5126,
      "count": 24,
      "max": [
        -0.15625,
        0.301435649394989,
        0.1496366411447525
      ],
      "min": [
        -0.21875,
        0.11393564939498901,
        0.0871366485953331
      ],
      "bufferView": 18,
      "byteOffset": 0
    },
    {
      "type": "VEC2",
      "componentType": 5126,
      "count": 24,
      "bufferView": 18,
      "byteOffset": 12
    },
    {
      "type": "VEC3",
      "componentType": 5126,
      "count": 24,
      "max": [
        0.21875,
        -0.07217808812856674,
        -0.18614713847637177
      ],
      "min": [
        0.09375,
        -0.44717809557914734,
        -0.31114715337753296
      ],
      "bufferView": 19,
      "byteOffset": 0
    },
    {
      "type": "VEC2",
      "componentType": 5126,
      "count": 24,
      "bufferView": 19,
      "byteOffset": 12
    },
    {
      "type": "VEC3",
      "componentType": 5126,
      "count": 24,
      "max": [
        0.1875,
        -0.25967809557914734,
        0.0013528568670153618
      ],
      "min": [
        0.125,
        -0.32217809557914734,
        -0.18614713847637177
      ],
      "bufferView": 20,
      "byteOffset": 0
    },
    {
      "type": "VEC2",
      "componentType": 5126,
      "count": 24,
      "bufferView": 20,
      "byteOffset": 12
    },
    {
      "type": "VEC3",
      "componentType": 5126,
      "count": 24,
      "max": [
        -0.125,
        -0.25967809557914734,
        0.0013528568670153618
      ],
      "min": [
        -0.1875,
        -0.32217809557914734,
        -0.18614713847637177
      ],
      "bufferView": 21,
      "byteOffset": 0
    },
    {
      "type": "VEC2",
      "componentType": 5126,
      "count": 24,
      "bufferView": 21,
      "byteOffset": 12
    },
    {
      "type": "VEC3",
      "componentType": 5126,
      "count": 24,
      "max": [
        0.21875,
        -0.07217808812856674,
        0.12635286152362823
      ],
      "min": [
        0.09375,
        -0.44717809557914734,
        0.0013528568670153618
      ],
      "bufferView": 22,
      "byteOffset": 0
    },
    {
      "type": "VEC2",
      "componentType": 5126,
      "count": 24,
      "bufferView": 22,
      "byteOffset": 12
    },
    {
      "type": "VEC3",
      "componentType": 5126,
      "count": 24,
      "max": [
        0.09375,
        -0.25967809557914734,
        0.09510285407304764
      ],
      "min": [
        -0.09375,
        -0.32217809557914734,
        0.032602857798337936
      ],
      "bufferView": 23,
      "byteOffset": 0
    },
    {
      "type": "VEC2",
      "componentType": 5126,
      "count": 24,
      "bufferView": 23,
      "byteOffset": 12
    },
    {
      "type": "VEC3",
      "componentType": 5126,
      "count": 24,
      "max": [
        0.09375,
        -0.25967809557914734,
        -0.21739713847637177
      ],
      "min": [
        -0.09375,
        -0.32217809557914734,
        -0.27989715337753296
      ],
      "bufferView": 24,
      "byteOffset": 0
    },
    {
      "type": "VEC2",
      "componentType": 5126,
      "count": 24,
      "bufferView": 24,
      "byteOffset": 12
    },
    {
      "type": "VEC3",
      "componentType": 5126,
      "count": 24,
      "max": [
        -0.09375,
        -0.07217808812856674,
        0.12635286152362823
      ],
      "min": [
        -0.21875,
        -0.44717809557914734,
        0.0013528568670153618
      ],
      "bufferView": 25,
      "byteOffset": 0
    },
    {
      "type": "VEC2",
      "componentType": 5126,
      "count": 24,
      "bufferView": 25,
      "byteOffset": 12
    },
    {
      "type": "VEC3",
      "componentType": 5126,
      "count": 24,
      "max": [
        -0.09375,
        -0.07217808812856674,
        -0.18614713847637177
      ],
      "min": [
        -0.21875,
        -0.44717809557914734,
        -0.31114715337753296
      ],
      "bufferView": 26,
      "byteOffset": 0
    },
    {
      "type": "VEC2",
      "componentType": 5126,
      "count": 24,
      "bufferView": 26,
      "byteOffset": 12
    },
    {
      "type": "VEC3",
      "componentType": 5126,
      "count": 24,
      "max": [
        0.28125,
        0.551435649394989,
        0.1496366411447525
      ],
      "min": [
        -0.28125,
        0.301435649394989,
        0.0871366485953331
      ],
      "bufferView": 27,
      "byteOffset": 0
    },
    {
      "type": "VEC2",
      "componentType": 5126,
      "count": 24,
      "bufferView": 27,
      "byteOffset": 12
    },
    {
      "type": "SCALAR",
      "componentType": 5126,
      "count": 389,
      "max": [
        44.5
      ],
      "min": [
        0
      ],
      "bufferView": 28,
      "byteOffset": 0
    },
    {
      "type": "VEC4",
      "componentType": 5126,
      "count": 389,
      "bufferView": 28,
      "byteOffset": 1556
    },
    {
      "type": "SCALAR",
      "componentType": 5126,
      "count": 234,
      "max": [
        44
      ],
      "min": [
        0
      ],
      "bufferView": 28,
      "byteOffset": 7780
    },
    {
      "type": "VEC3",
      "componentType": 5126,
      "count": 234,
      "bufferView": 28,
      "byteOffset": 8716
    },
    {
      "type": "SCALAR",
      "componentType": 5126,
      "count": 383,
      "max": [
        44.5
      ],
      "min": [
        0
      ],
      "bufferView": 28,
      "byteOffset": 11524
    },
    {
      "type": "VEC4",
      "componentType": 5126,
      "count": 383,
      "bufferView": 28,
      "byteOffset": 13056
    },
    {
      "type": "SCALAR",
      "componentType": 5126,
      "count": 126,
      "max": [
        44
      ],
      "min": [
        0
      ],
      "bufferView": 28,
      "byteOffset": 19184
    },
    {
      "type": "VEC3",
      "componentType": 5126,
      "count": 126,
      "bufferView": 28,
      "byteOffset": 19688
    },
    {
      "type": "SCALAR",
      "componentType": 5126,
      "count": 429,
      "max": [
        44.5
      ],
      "min": [
        0
      ],
      "bufferView": 28,
      "byteOffset": 21200
    },
    {
      "type": "VEC4",
      "componentType": 5126,
      "count": 429,
      "bufferView": 28,
      "byteOffset": 22916
    },
    {
      "type": "SCALAR",
      "componentType": 5126,
      "count": 374,
      "max": [
        44
      ],
      "min": [
        0
      ],
      "bufferView": 28,
      "byteOffset": 29780
    },
    {
      "type": "VEC3",
      "componentType": 5126,
      "count": 374,
      "bufferView": 28,
      "byteOffset": 31276
    },
    {
      "type": "SCALAR",
      "componentType": 5126,
      "count": 322,
      "max": [
        44.5
      ],
      "min": [
        0
      ],
      "bufferView": 28,
      "byteOffset": 35764
    },
    {
      "type": "VEC4",
      "componentType": 5126,
      "count": 322,
      "bufferView": 28,
      "byteOffset": 37052
    },
    {
      "type": "VEC3",
      "componentType": 5126,
      "count": 374,
      "bufferView": 28,
      "byteOffset": 42204
    }
  ],
  "bufferViews": [
    {
      "buffer": 0,
      "byteOffset": 0,
      "byteLength": 72,
      "target": 34963
    },
    {
      "buffer": 0,
      "byteOffset": 72,
      "byteLength": 768,
      "byteStride": 32,
      "target": 34962
    },
    {
      "buffer": 0,
      "byteOffset": 840,
      "byteLength": 480,
      "byteStride": 20,
      "target": 34962
    },
    {
      "buffer": 0,
      "byteOffset": 1320,
      "byteLength": 480,
      "byteStride": 20,
      "target": 34962
    },
    {
      "buffer": 0,
      "byteOffset": 1800,
      "byteLength": 480,
      "byteStride": 20,
      "target": 34962
    },
    {
      "buffer": 0,
      "byteOffset": 2280,
      "byteLength": 480,
      "byteStride": 20,
      "target": 34962
    },
    {
      "buffer": 0,
      "byteOffset": 2760,
      "byteLength": 480,
      "byteStride": 20,
      "target": 34962
    },
    {
      "buffer": 0,
      "byteOffset": 3240,
      "byteLength": 480,
      "byteStride": 20,
      "target": 34962
    },
    {
      "buffer": 0,
      "byteOffset": 3720,
      "byteLength": 480,
      "byteStride": 20,
      "target": 34962
    },
    {
      "buffer": 0,
      "byteOffset": 4200,
      "byteLength": 480,
      "byteStride": 20,
      "target": 34962
    },
    {
      "buffer": 0,
      "byteOffset": 4680,
      "byteLength": 480,
      "byteStride": 20,
      "target": 34962
    },
    {
      "buffer": 0,
      "byteOffset": 5160,
      "byteLength": 480,
      "byteStride": 20,
      "target": 34962
    },
    {
      "buffer": 0,
      "byteOffset": 5640,
      "byteLength": 480,
      "byteStride": 20,
      "target": 34962
    },
    {
      "buffer": 0,
      "byteOffset": 6120,
      "byteLength": 480,
      "byteStride": 20,
      "target": 34962
    },
    {
      "buffer": 0,
      "byteOffset": 6600,
      "byteLength": 480,
      "byteStride": 20,
      "target": 34962
    },
    {
      "buffer": 0,
      "byteOffset": 7080,
      "byteLength": 480,
      "byteStride": 20,
      "target": 34962
    },
    {
      "buffer": 0,
      "byteOffset": 7560,
      "byteLength": 480,
      "byteStride": 20,
      "target": 34962
    },
    {
      "buffer": 0,
      "byteOffset": 8040,
      "byteLength": 480,
      "byteStride": 20,
      "target": 34962
    },
    {
      "buffer": 0,
      "byteOffset": 8520,
      "byteLength": 480,
      "byteStride": 20,
      "target": 34962
    },
    {
      "buffer": 0,
      "byteOffset": 9000,
      "byteLength": 480,
      "byteStride": 20,
      "target": 34962
    },
    {
      "buffer": 0,
      "byteOffset": 9480,
      "byteLength": 480,
      "byteStride": 20,
      "target": 34962
    },
    {
      "buffer": 0,
      "byteOffset": 9960,
      "byteLength": 480,
      "byteStride": 20,
      "target": 34962
    },
    {
      "buffer": 0,
      "byteOffset": 10440,
      "byteLength": 480,
      "byteStride": 20,
      "target": 34962
    },
    {
      "buffer": 0,
      "byteOffset": 10920,
      "byteLength": 480,
      "byteStride": 20,
      "target": 34962
    },
    {
      "buffer": 0,
      "byteOffset": 11400,
      "byteLength": 480,
      "byteStride": 20,
      "target": 34962
    },
    {
      "buffer": 0,
      "byteOffset": 11880,
      "byteLength": 480,
      "byteStride": 20,
      "target": 34962
    },
    {
      "buffer": 0,
      "byteOffset": 12360,
      "byteLength": 480,
      "byteStride": 20,
      "target": 34962
    },
    {
      "buffer": 0,
      "byteOffset": 12840,
      "byteLength": 480,
      "byteStride": 20,
      "target": 34962
    },
    {
      "buffer": 0,
      "byteOffset": 13320,
      "byteLength": 46692
    }
  ],
  "samplers": [
    {
      "magFilter": 9728,
      "minFilter": 9728,
      "wrapS": 33071,
      "wrapT": 33071
    }
  ],
  "textures": [
    {
      "source": 0,
      "sampler": 0
    },
    {
      "source": 1,
      "sampler": 0
    }
  ],
  "images": [
    {
      "mimeType": "image/png",
      "uri": "baseColor_1.png"
    },
    {
      "mimeType": "image/png",
      "uri": "baseColor_2.png"
    }
  ],
  "buffers": [
    {
      "uri": "dimirci-named-nodes.bin",
      "byteLength": 60012
    }
  ],
  "materials": [
    {
      "alphaMode": "MASK",
      "alphaCutoff": 0.05,
      "doubleSided": true,
      "pbrMetallicRoughness": {
        "metallicFactor": 0,
        "baseColorTexture": {
          "index": 0
        }
      }
    },
    {
      "alphaMode": "MASK",
      "alphaCutoff": 0.05,
      "doubleSided": true,
      "pbrMetallicRoughness": {
        "metallicFactor": 0,
        "baseColorTexture": {
          "index": 1
        }
      }
    }
  ],
  "meshes": [
    {
      "primitives": [
        {
          "attributes": {
            "POSITION": 1,
            "NORMAL": 2,
            "TEXCOORD_0": 3
          },
          "mode": 4,
          "material": 0,
          "indices": 0
        }
      ]
    },
    {
      "primitives": [
        {
          "attributes": {
            "POSITION": 4,
            "TEXCOORD_0": 5,
            "NORMAL": 2
          },
          "mode": 4,
          "material": 0,
          "indices": 0
        }
      ]
    },
    {
      "primitives": [
        {
          "attributes": {
            "POSITION": 6,
            "TEXCOORD_0": 7,
            "NORMAL": 2
          },
          "mode": 4,
          "material": 0,
          "indices": 0
        }
      ]
    },
    {
      "primitives": [
        {
          "attributes": {
            "POSITION": 8,
            "TEXCOORD_0": 9,
            "NORMAL": 2
          },
          "mode": 4,
          "material": 0,
          "indices": 0
        }
      ]
    },
    {
      "primitives": [
        {
          "attributes": {
            "POSITION": 10,
            "TEXCOORD_0": 11,
            "NORMAL": 2
          },
          "mode": 4,
          "material": 0,
          "indices": 0
        }
      ]
    },
    {
      "primitives": [
        {
          "attributes": {
            "POSITION": 12,
            "TEXCOORD_0": 13,
            "NORMAL": 2
          },
          "mode": 4,
          "material": 0,
          "indices": 0
        }
      ]
    },
    {
      "primitives": [
        {
          "attributes": {
            "POSITION": 14,
            "TEXCOORD_0": 15,
            "NORMAL": 2
          },
          "mode": 4,
          "material": 0,
          "indices": 0
        }
      ]
    },
    {
      "primitives": [
        {
          "attributes": {
            "POSITION": 16,
            "TEXCOORD_0": 17,
            "NORMAL": 2
          },
          "mode": 4,
          "material": 0,
          "indices": 0
        }
      ]
    },
    {
      "primitives": [
        {
          "attributes": {
            "POSITION": 18,
            "TEXCOORD_0": 19,
            "NORMAL": 2
          },
          "mode": 4,
          "material": 0,
          "indices": 0
        }
      ]
    },
    {
      "primitives": [
        {
          "attributes": {
            "POSITION": 20,
            "TEXCOORD_0": 21,
            "NORMAL": 2
          },
          "mode": 4,
          "material": 0,
          "indices": 0
        }
      ]
    },
    {
      "primitives": [
        {
          "attributes": {
            "POSITION": 22,
            "TEXCOORD_0": 23,
            "NORMAL": 2
          },
          "mode": 4,
          "material": 0,
          "indices": 0
        }
      ]
    },
    {
      "primitives": [
        {
          "attributes": {
            "POSITION": 24,
            "TEXCOORD_0": 25,
            "NORMAL": 2
          },
          "mode": 4,
          "material": 0,
          "indices": 0
        }
      ]
    },
    {
      "primitives": [
        {
          "attributes": {
            "POSITION": 26,
            "TEXCOORD_0": 27,
            "NORMAL": 2
          },
          "mode": 4,
          "material": 0,
          "indices": 0
        }
      ]
    },
    {
      "primitives": [
        {
          "attributes": {
            "POSITION": 28,
            "TEXCOORD_0": 29,
            "NORMAL": 2
          },
          "mode": 4,
          "material": 0,
          "indices": 0
        }
      ]
    },
    {
      "primitives": [
        {
          "attributes": {
            "POSITION": 30,
            "TEXCOORD_0": 31,
            "NORMAL": 2
          },
          "mode": 4,
          "material": 0,
          "indices": 0
        }
      ]
    },
    {
      "primitives": [
        {
          "attributes": {
            "POSITION": 32,
            "TEXCOORD_0": 33,
            "NORMAL": 2
          },
          "mode": 4,
          "material": 1,
          "indices": 0
        }
      ]
    },
    {
      "primitives": [
        {
          "attributes": {
            "POSITION": 34,
            "TEXCOORD_0": 35,
            "NORMAL": 2
          },
          "mode": 4,
          "material": 1,
          "indices": 0
        }
      ]
    },
    {
      "primitives": [
        {
          "attributes": {
            "POSITION": 36,
            "TEXCOORD_0": 37,
            "NORMAL": 2
          },
          "mode": 4,
          "material": 1,
          "indices": 0
        }
      ]
    },
    {
      "primitives": [
        {
          "attributes": {
            "POSITION": 38,
            "TEXCOORD_0": 39,
            "NORMAL": 2
          },
          "mode": 4,
          "material": 1,
          "indices": 0
        }
      ]
    },
    {
      "primitives": [
        {
          "attributes": {
            "POSITION": 40,
            "TEXCOORD_0": 41,
            "NORMAL": 2
          },
          "mode": 4,
          "material": 1,
          "indices": 0
        }
      ]
    },
    {
      "primitives": [
        {
          "attributes": {
            "POSITION": 42,
            "TEXCOORD_0": 43,
            "NORMAL": 2
          },
          "mode": 4,
          "material": 1,
          "indices": 0
        }
      ]
    },
    {
      "primitives": [
        {
          "attributes": {
            "POSITION": 44,
            "TEXCOORD_0": 45,
            "NORMAL": 2
          },
          "mode": 4,
          "material": 1,
          "indices": 0
        }
      ]
    },
    {
      "primitives": [
        {
          "attributes": {
            "POSITION": 46,
            "TEXCOORD_0": 47,
            "NORMAL": 2
          },
          "mode": 4,
          "material": 1,
          "indices": 0
        }
      ]
    },
    {
      "primitives": [
        {
          "attributes": {
            "POSITION": 48,
            "TEXCOORD_0": 49,
            "NORMAL": 2
          },
          "mode": 4,
          "material": 1,
          "indices": 0
        }
      ]
    },
    {
      "primitives": [
        {
          "attributes": {
            "POSITION": 50,
            "TEXCOORD_0": 51,
            "NORMAL": 2
          },
          "mode": 4,
          "material": 1,
          "indices": 0
        }
      ]
    },
    {
      "primitives": [
        {
          "attributes": {
            "POSITION": 52,
            "TEXCOORD_0": 53,
            "NORMAL": 2
          },
          "mode": 4,
          "material": 1,
          "indices": 0
        }
      ]
    },
    {
      "primitives": [
        {
          "attributes": {
            "POSITION": 54,
            "TEXCOORD_0": 55,
            "NORMAL": 2
          },
          "mode": 4,
          "material": 1,
          "indices": 0
        }
      ]
    }
  ],
  "nodes": [
    {
      "name": "Body",
      "mesh": 0
    },
    {
      "name": "Body Layer",
      "translation": [
        0,
        0.015625,
        0
      ],
      "mesh": 1
    },
    {
      "name": "Head",
      "translation": [
        0,
        -1.5,
        0
      ],
      "mesh": 2
    },
    {
      "name": "Hat Layer",
      "translation": [
        0,
        -1.5,
        0
      ],
      "mesh": 3
    },
    {
      "name": "Hat Layer",
      "translation": [
        0,
        -2.0625,
        0
      ],
      "mesh": 4
    },
    {
      "name": "Hat Layer",
      "translation": [
        0,
        -0.3125,
        -0.3062499999999999
      ],
      "mesh": 5
    },
    {
      "name": "Head",
      "translation": [
        0,
        0.625,
        0
      ],
      "children": [
        2,
        3,
        4,
        5
      ]
    },
    {
      "name": "Right Arm",
      "translation": [
        -0.3125,
        -1.375,
        0
      ],
      "mesh": 6
    },
    {
      "name": "Right Arm Layer",
      "translation": [
        -0.3125,
        -1.375,
        0
      ],
      "mesh": 7
    },
    {
      "name": "RightArm",
      "translation": [
        0.3125,
        0.5,
        0
      ],
      "children": [
        7,
        8
      ]
    },
    {
      "name": "Left Arm",
      "translation": [
        0.3125,
        -1.375,
        0
      ],
      "mesh": 8
    },
    {
      "name": "Left Arm Layer",
      "translation": [
        0.3125,
        -1.375,
        0
      ],
      "mesh": 9
    },
    {
      "name": "cube",
      "translation": [
        -0.0625,
        -0.375,
        0
      ],
      "mesh": 10
    },
    {
      "name": "LeftArm",
      "translation": [
        -0.3125,
        0.5,
        0
      ],
      "children": [
        10,
        11,
        12
      ]
    },
    {
      "name": "Body",
      "translation": [
        0,
        0.625,
        0
      ],
      "children": [
        0,
        1,
        6,
        9,
        13
      ]
    },
    {
      "name": "Right Leg",
      "translation": [
        0.08520344999737464,
        0.5154263059526354,
        -0.630449514579634
      ],
      "rotation": [
        0.6617167273228647,
        -0.034738843439271985,
        0.059306327659499086,
        0.7465969093407523
      ],
      "mesh": 11
    },
    {
      "name": "Right Leg Layer",
      "translation": [
        0.08520344999737464,
        0.5154263059526354,
        -0.630449514579634
      ],
      "rotation": [
        0.6617167273228647,
        -0.034738843439271985,
        0.059306327659499086,
        0.7465969093407523
      ],
      "mesh": 12
    },
    {
      "name": "Left Leg",
      "translation": [
        -0.1134527455179145,
        0.46282389563047177,
        -0.6225406466967208
      ],
      "rotation": [
        0.6108229094832613,
        0.05576772829280657,
        -0.07018450916027855,
        0.7866762157364324
      ],
      "mesh": 13
    },
    {
      "name": "Left Leg Layer",
      "translation": [
        -0.1134527455179145,
        0.46282389563047177,
        -0.6225406466967208
      ],
      "rotation": [
        0.6278388013775471,
        0.054223390085119325,
        -0.07138437372903474,
        0.7731639765533541
      ],
      "mesh": 14
    },
    {
      "name": "demirci",
      "translation": [
        0,
        -0.03125,
        0
      ],
      "children": [
        14
      ]
    },
    {
      "name": "cube",
      "translation": [
        0.0625,
        0.4471780884774443,
        -0.09510285684647735
      ],
      "mesh": 15
    },
    {
      "name": "cube",
      "translation": [
        0.0625,
        0.4471780884774443,
        -0.09510285684647735
      ],
      "rotation": [
        0.19509032201612825,
        0,
        0,
        0.9807852804032304
      ],
      "mesh": 16
    },
    {
      "name": "cube",
      "translation": [
        0.0625,
        0.4471780884774443,
        -0.09510285684647735
      ],
      "rotation": [
        0.19509032201612825,
        0,
        0,
        0.9807852804032304
      ],
      "mesh": 17
    },
    {
      "name": "cube",
      "translation": [
        0.0625,
        0.4471780884774443,
        -0.09510285684647735
      ],
      "mesh": 18
    },
    {
      "name": "cube",
      "translation": [
        0.0625,
        0.4471780884774443,
        -0.09510285684647735
      ],
      "mesh": 19
    },
    {
      "name": "cube",
      "translation": [
        0.0625,
        0.4471780884774443,
        -0.09510285684647735
      ],
      "mesh": 20
    },
    {
      "name": "cube",
      "translation": [
        0.0625,
        0.4471780884774443,
        -0.09510285684647735
      ],
      "mesh": 21
    },
    {
      "name": "cube",
      "translation": [
        0.0625,
        0.4471780884774443,
        -0.09510285684647735
      ],
      "mesh": 22
    },
    {
      "name": "cube",
      "translation": [
        0.0625,
        0.4471780884774443,
        -0.09510285684647735
      ],
      "mesh": 23
    },
    {
      "name": "cube",
      "translation": [
        0.0625,
        0.4471780884774443,
        -0.09510285684647735
      ],
      "mesh": 24
    },
    {
      "name": "cube",
      "translation": [
        0.0625,
        0.4471780884774443,
        -0.09510285684647735
      ],
      "mesh": 25
    },
    {
      "name": "cube",
      "translation": [
        0.0625,
        0.4471780884774443,
        -0.09510285684647735
      ],
      "rotation": [
        0.19509032201612825,
        0,
        0,
        0.9807852804032304
      ],
      "mesh": 26
    }
  ],
  "animations": [
    {
      "name": "idle",
      "samplers": [
        {
          "input": 56,
          "output": 57,
          "interpolation": "LINEAR"
        },
        {
          "input": 58,
          "output": 59,
          "interpolation": "LINEAR"
        },
        {
          "input": 60,
          "output": 61,
          "interpolation": "LINEAR"
        },
        {
          "input": 62,
          "output": 63,
          "interpolation": "LINEAR"
        },
        {
          "input": 64,
          "output": 65,
          "interpolation": "LINEAR"
        },
        {
          "input": 66,
          "output": 67,
          "interpolation": "LINEAR"
        },
        {
          "input": 68,
          "output": 69,
          "interpolation": "LINEAR"
        },
        {
          "input": 66,
          "output": 70,
          "interpolation": "LINEAR"
        }
      ],
      "channels": [
        {
          "sampler": 0,
          "target": {
            "node": 6,
            "path": "rotation"
          }
        },
        {
          "sampler": 1,
          "target": {
            "node": 6,
            "path": "translation"
          }
        },
        {
          "sampler": 2,
          "target": {
            "node": 14,
            "path": "rotation"
          }
        },
        {
          "sampler": 3,
          "target": {
            "node": 14,
            "path": "translation"
          }
        },
        {
          "sampler": 4,
          "target": {
            "node": 9,
            "path": "rotation"
          }
        },
        {
          "sampler": 5,
          "target": {
            "node": 9,
            "path": "translation"
          }
        },
        {
          "sampler": 6,
          "target": {
            "node": 13,
            "path": "rotation"
          }
        },
        {
          "sampler": 7,
          "target": {
            "node": 13,
            "path": "translation"
          }
        }
      ]
    }
  ],
  "scenes": [
    {
      "name": "blockbench_export",
      "nodes": [
        19,
        15,
        16,
        17,
        18,
        20,
        21,
        22,
        23,
        24,
        25,
        26,
        27,
        28,
        29,
        30,
        31
      ]
    }
  ],
  "scene": 0
}